<svg width="89" height="47" viewBox="0 0 89 47" fill="none" xmlns="http://www.w3.org/2000/svg">
<path d="M44.7404 22.4298C44.3224 21.8104 44.1225 21.0784 44.1699 20.3416V17.3141C44.1699 16.386 44.359 15.6808 44.7372 15.1982C45.1154 14.7157 45.7649 14.4755 46.6858 14.4776C47.5512 14.4776 48.1654 14.6829 48.5287 15.0935C48.9249 15.6175 49.1176 16.2582 49.0735 16.9045V17.6159H47.5255V16.8952C47.531 16.6594 47.516 16.4234 47.4807 16.19C47.4584 16.0303 47.3804 15.8826 47.2595 15.7711C47.1006 15.6509 46.9003 15.5926 46.6987 15.6079C46.4866 15.5927 46.2762 15.6542 46.1089 15.7803C45.9741 15.9039 45.8842 16.0659 45.8525 16.2423C45.8081 16.4894 45.7878 16.74 45.7916 16.9907V20.665C45.7672 21.0195 45.8355 21.3742 45.9904 21.6968C46.0673 21.8059 46.1743 21.8924 46.2993 21.9468C46.4243 22.0012 46.5625 22.0212 46.6987 22.0048C46.897 22.0204 47.0937 21.9607 47.2467 21.8384C47.3728 21.7182 47.454 21.5611 47.4775 21.3919C47.5136 21.1481 47.5297 20.902 47.5255 20.6558V19.9104H49.0735V20.5911C49.117 21.2648 48.9289 21.9335 48.5383 22.4945C48.1825 22.9441 47.5768 23.1689 46.6858 23.1689C45.7949 23.1689 45.1218 22.9287 44.7404 22.4298Z" fill="#AFB1B8"/>
<path d="M51.1856 22.4606C50.7946 21.9894 50.5991 21.3025 50.5991 20.394V17.2094C50.5991 16.3101 50.7946 15.6294 51.1856 15.1674C51.5766 14.7055 52.2304 14.4755 53.147 14.4776C54.0572 14.4776 54.7078 14.7075 55.0988 15.1674C55.4898 15.6294 55.6885 16.3101 55.6885 17.2094V20.394C55.6885 21.2933 55.4898 21.9832 55.0924 22.4575C54.695 22.9318 54.0476 23.1689 53.147 23.1689C52.2464 23.1689 51.5798 22.9287 51.1856 22.4606ZM53.8681 21.6968C54.0081 21.4016 54.0719 21.0783 54.054 20.7543V16.8552C54.072 16.5375 54.0093 16.2204 53.8713 15.9313C53.7928 15.8198 53.6832 15.7318 53.5551 15.6774C53.4271 15.6229 53.2856 15.6042 53.147 15.6233C53.0079 15.6047 52.8662 15.6236 52.7377 15.678C52.6093 15.7324 52.4991 15.8201 52.4195 15.9313C52.2786 16.2196 52.2147 16.5372 52.2336 16.8552V20.7728C52.2141 21.0969 52.278 21.4205 52.4195 21.7152C52.5097 21.8146 52.6211 21.8942 52.746 21.9488C52.8709 22.0033 53.0066 22.0316 53.1438 22.0316C53.281 22.0316 53.4167 22.0033 53.5416 21.9488C53.6665 21.8942 53.7779 21.8146 53.8681 21.7152V21.6968Z" fill="#AFB1B8"/>
<path d="M57.5505 14.5706H59.2171L60.4702 20.4463L61.7522 14.5706H63.3739L63.5374 23.0515H62.3387L62.2105 17.1573L60.9734 23.0515H60.0119L58.7299 17.1358L58.6114 23.0515H57.3999L57.5505 14.5706Z" fill="#AFB1B8"/>
<path d="M65.4061 14.5706H68.0021C69.4977 14.5706 70.2455 15.3733 70.2455 16.9787C70.2455 18.5164 69.4581 19.2843 67.8835 19.2822H66.9989V23.0515H65.3965L65.4061 14.5706ZM67.6239 18.1951C67.7822 18.2144 67.943 18.2005 68.0952 18.1542C68.2474 18.108 68.3873 18.0305 68.5052 17.9272C68.689 17.6408 68.77 17.3044 68.736 16.9695C68.7444 16.7108 68.7185 16.4521 68.6591 16.1996C68.6362 16.1153 68.5961 16.0362 68.5411 15.9669C68.486 15.8977 68.4172 15.8396 68.3386 15.7962C68.1161 15.6937 67.8702 15.647 67.6239 15.6607H67.0021V18.1951H67.6239Z" fill="#AFB1B8"/>
<path d="M72.5559 14.5706H74.277L76.0428 23.0515H74.5494L74.2 21.096H72.6649L72.3059 23.0515H70.79L72.5559 14.5706ZM74.027 20.1137L73.4277 16.5538L72.8283 20.1137H74.027Z" fill="#AFB1B8"/>
<path d="M77.469 14.5706H78.5908L80.7381 19.4085V14.5706H82.0681V23.0515H81.0009L78.8407 18.0011V23.0515H77.4658L77.469 14.5706Z" fill="#AFB1B8"/>
<path d="M85.1836 19.8178L83.3984 14.5823H84.9015L85.9912 17.9453L87.0136 14.5823H88.4846L86.7219 19.8178V23.0515H85.1836V19.8178Z" fill="#AFB1B8"/>
<path d="M47.2146 26.7595V27.203H45.907V30.6492H45.3589V27.203H44.0449V26.7595H47.2146Z" fill="#AFB1B8"/>
<path d="M51.3141 30.6497H50.891C50.8481 30.6523 50.8057 30.639 50.7724 30.6127C50.7404 30.5901 50.7159 30.5591 50.7019 30.5234L50.3238 29.5995H48.5097L48.1316 30.5234C48.1208 30.5621 48.1011 30.5979 48.0739 30.6281C48.0403 30.6539 47.9982 30.6671 47.9553 30.6651H47.5322L49.1347 26.7754H49.6924L51.3141 30.6497ZM48.6604 29.2053H50.1731L49.5321 27.6223C49.4848 27.5026 49.4452 27.3802 49.4135 27.2558C49.3911 27.3297 49.3719 27.4006 49.3526 27.4622L49.295 27.6254L48.6604 29.2053Z" fill="#AFB1B8"/>
<path d="M54.0766 30.2675C54.177 30.2725 54.2775 30.2725 54.3779 30.2675C54.4645 30.2589 54.5503 30.2435 54.6343 30.2213C54.7128 30.2028 54.7899 30.1791 54.865 30.1504C54.9356 30.1227 55.0061 30.0888 55.0798 30.055V29.1802H54.4388C54.4229 29.181 54.4071 29.1788 54.3922 29.1735C54.3773 29.1682 54.3637 29.16 54.3523 29.1494C54.3417 29.1406 54.3334 29.1297 54.3279 29.1175C54.3223 29.1052 54.3197 29.0919 54.3202 29.0785V28.7798H55.5637V30.2706C55.4622 30.3403 55.355 30.4021 55.2432 30.4554C55.129 30.5096 55.0099 30.5539 54.8875 30.5878C54.7564 30.6249 54.6224 30.6517 54.4869 30.6679C54.3315 30.6845 54.1753 30.6927 54.0189 30.6926C53.7425 30.6948 53.4683 30.6456 53.2113 30.5478C52.9714 30.4551 52.7534 30.3168 52.5703 30.1412C52.3919 29.9638 52.2514 29.7545 52.1569 29.5252C52.0559 29.2673 52.0059 28.9936 52.0095 28.7181C52.0061 28.4409 52.055 28.1655 52.1537 27.905C52.2459 27.6745 52.3866 27.4647 52.5671 27.2889C52.75 27.1139 52.9681 26.9766 53.2081 26.8854C53.4825 26.7862 53.7738 26.7371 54.067 26.7407C54.2162 26.7405 54.3652 26.7518 54.5125 26.7745C54.6428 26.7949 54.7706 26.828 54.8939 26.8731C55.006 26.9136 55.1134 26.9652 55.2144 27.0271C55.3126 27.0879 55.4058 27.1559 55.4932 27.2304L55.3394 27.4707C55.3273 27.4926 55.3094 27.511 55.2874 27.5241C55.2654 27.5371 55.2402 27.5441 55.2144 27.5446C55.1789 27.5435 55.1445 27.5328 55.115 27.5138C55.067 27.4891 55.0157 27.4583 54.958 27.4214C54.8898 27.3803 54.818 27.3453 54.7433 27.3167C54.6477 27.2798 54.5491 27.251 54.4484 27.2304C54.3142 27.2067 54.1779 27.1953 54.0414 27.1965C53.8299 27.1943 53.62 27.2309 53.4228 27.3043C53.2445 27.3731 53.0838 27.4782 52.9517 27.6124C52.8189 27.7522 52.7174 27.9168 52.6536 28.0959C52.5105 28.5172 52.5105 28.9714 52.6536 29.3927C52.7238 29.5756 52.833 29.7425 52.9741 29.8825C53.1056 30.0159 53.2651 30.1209 53.4421 30.1905C53.6458 30.2577 53.8619 30.2839 54.0766 30.2675V30.2675Z" fill="#AFB1B8"/>
<path d="M59.1851 30.2057H60.9351V30.6492H58.6499V26.7595H59.198L59.1851 30.2057Z" fill="#AFB1B8"/>
<path d="M62.7556 30.6492H62.2075V26.7595H62.7556V30.6492Z" fill="#AFB1B8"/>
<path d="M64.7939 26.7783C64.8265 26.7961 64.8548 26.8202 64.8772 26.8491L67.22 29.781C67.2168 29.7348 67.2168 29.6885 67.22 29.6424C67.22 29.5993 67.22 29.5561 67.22 29.5161V26.7444H67.6975V30.6494H67.4219C67.3811 30.6526 67.3401 30.6452 67.3033 30.6279C67.27 30.6085 67.2407 30.5834 67.2168 30.554L64.8772 27.6252C64.8772 27.6714 64.8772 27.7145 64.8772 27.7576C64.8772 27.8007 64.8772 27.8408 64.8772 27.8777V30.6494H64.4189V26.7598H64.7042C64.7351 26.7598 64.7657 26.7661 64.7939 26.7783V26.7783Z" fill="#AFB1B8"/>
<path d="M71.7323 26.7595V27.1876H69.7901V28.4719H71.3637V28.8846H69.7901V30.212H71.7323V30.6401H69.2261V26.7595H71.7323Z" fill="#AFB1B8"/>
<path d="M14.3035 2.73844L38.6385 9.37823V32.6452L14.3035 26.0085V2.73844ZM12.7427 0.755127V27.1387L40.196 34.6316V8.25106L12.7427 0.755127Z" fill="#AFB1B8"/>
<path d="M27.4565 46.8791L0 39.38V12.999L27.4565 20.4951V46.8791Z" fill="#AFB1B8"/>
<path d="M13.1978 2.43969L37.2155 8.99624L27.0014 18.8141L2.98057 12.2545L13.1978 2.43969ZM12.7427 0.755127L0 12.9998L27.4565 20.4956L40.196 8.25097L12.7427 0.755127Z" fill="#AFB1B8"/>
<path d="M29.0015 45.3948L40.1962 34.6347L29.0015 31.5767V45.3948Z" fill="#AFB1B8"/>
</svg>
