<svg width="80" height="43" viewBox="0 0 80 43" fill="none" xmlns="http://www.w3.org/2000/svg">
<path d="M12.4022 13.0237H12.3995C10.1372 13.0237 8.30322 14.8377 8.30322 17.0754V17.0781C8.30322 19.3158 10.1372 21.1299 12.3995 21.1299H12.4022C14.6645 21.1299 16.4985 19.3158 16.4985 17.0781V17.0754C16.4985 14.8377 14.6645 13.0237 12.4022 13.0237Z" fill="#2196F3"/>
<path d="M42.6368 11.7284C42.6304 8.62022 41.3795 5.64116 39.1579 3.44311C36.9363 1.24507 33.925 0.00705749 30.7828 0V0C27.6397 0.00564636 24.6269 1.24304 22.4042 3.44123C20.1814 5.63943 18.9298 8.61929 18.9233 11.7284V11.7284V28.8682C18.9233 28.8682 42.6341 26.2559 42.6368 11.731V11.7284Z" fill="#2196F3"/>
<path d="M0 34.4935C0.00569902 36.6562 0.876554 38.7287 2.42227 40.2583C3.96798 41.7878 6.06289 42.6499 8.24921 42.6563V42.6563C10.4351 42.6499 12.5296 41.7882 14.0752 40.2592C15.6208 38.7303 16.492 36.6584 16.4984 34.4961V34.4961V22.5698C16.4984 22.5698 0 24.3888 0 34.4935ZM8.24921 36.6303C7.82196 36.6303 7.40431 36.505 7.04907 36.2702C6.69383 36.0354 6.41696 35.7017 6.25346 35.3112C6.08996 34.9207 6.04718 34.4911 6.13053 34.0766C6.21388 33.6621 6.41962 33.2813 6.72173 32.9825C7.02383 32.6836 7.40874 32.4801 7.82778 32.3977C8.24681 32.3152 8.68115 32.3575 9.07587 32.5193C9.4706 32.681 9.80797 32.9549 10.0453 33.3063C10.2827 33.6577 10.4094 34.0708 10.4094 34.4935C10.4105 34.7748 10.3554 35.0535 10.2473 35.3137C10.1392 35.5738 9.98026 35.8104 9.77956 36.0096C9.57886 36.2089 9.34036 36.367 9.07775 36.4749C8.81513 36.5828 8.53357 36.6383 8.24921 36.6383V36.6303Z" fill="#2196F3"/>
<path d="M25.0889 35.2402H23.4014V36.9834H22.5225V32.7178H25.2998V33.4297H23.4014V34.5312H25.0889V35.2402ZM29.3135 34.9473C29.3135 35.3672 29.2393 35.7354 29.0908 36.0518C28.9424 36.3682 28.7295 36.6123 28.4521 36.7842C28.1768 36.9561 27.8604 37.042 27.5029 37.042C27.1494 37.042 26.834 36.957 26.5566 36.7871C26.2793 36.6172 26.0645 36.375 25.9121 36.0605C25.7598 35.7441 25.6826 35.3809 25.6807 34.9707V34.7598C25.6807 34.3398 25.7559 33.9707 25.9062 33.6523C26.0586 33.332 26.2725 33.0869 26.5479 32.917C26.8252 32.7451 27.1416 32.6592 27.4971 32.6592C27.8525 32.6592 28.168 32.7451 28.4434 32.917C28.7207 33.0869 28.9346 33.332 29.085 33.6523C29.2373 33.9707 29.3135 34.3389 29.3135 34.7568V34.9473ZM28.4229 34.7539C28.4229 34.3066 28.3428 33.9668 28.1826 33.7344C28.0225 33.502 27.7939 33.3857 27.4971 33.3857C27.2021 33.3857 26.9746 33.501 26.8145 33.7314C26.6543 33.96 26.5732 34.2959 26.5713 34.7393V34.9473C26.5713 35.3828 26.6514 35.7207 26.8115 35.9609C26.9717 36.2012 27.2021 36.3213 27.5029 36.3213C27.7979 36.3213 28.0244 36.2061 28.1826 35.9756C28.3408 35.7432 28.4209 35.4053 28.4229 34.9619V34.7539ZM32.1641 35.8643C32.1641 35.6982 32.1055 35.5713 31.9883 35.4834C31.8711 35.3936 31.6602 35.2998 31.3555 35.2021C31.0508 35.1025 30.8096 35.0049 30.6318 34.9092C30.1475 34.6475 29.9053 34.2949 29.9053 33.8516C29.9053 33.6211 29.9697 33.416 30.0986 33.2363C30.2295 33.0547 30.416 32.9131 30.6582 32.8115C30.9023 32.71 31.1758 32.6592 31.4785 32.6592C31.7832 32.6592 32.0547 32.7148 32.293 32.8262C32.5312 32.9355 32.7158 33.0908 32.8467 33.292C32.9795 33.4932 33.0459 33.7217 33.0459 33.9775H32.167C32.167 33.7822 32.1055 33.6309 31.9824 33.5234C31.8594 33.4141 31.6865 33.3594 31.4639 33.3594C31.249 33.3594 31.082 33.4053 30.9629 33.4971C30.8438 33.5869 30.7842 33.7061 30.7842 33.8545C30.7842 33.9932 30.8535 34.1094 30.9922 34.2031C31.1328 34.2969 31.3389 34.3848 31.6104 34.4668C32.1104 34.6172 32.4746 34.8037 32.7031 35.0264C32.9316 35.249 33.0459 35.5264 33.0459 35.8584C33.0459 36.2275 32.9062 36.5176 32.627 36.7285C32.3477 36.9375 31.9717 37.042 31.499 37.042C31.1709 37.042 30.8721 36.9824 30.6025 36.8633C30.333 36.7422 30.127 36.5771 29.9844 36.3682C29.8438 36.1592 29.7734 35.917 29.7734 35.6416H30.6553C30.6553 36.1123 30.9365 36.3477 31.499 36.3477C31.708 36.3477 31.8711 36.3057 31.9883 36.2217C32.1055 36.1357 32.1641 36.0166 32.1641 35.8643ZM36.8545 33.4297H35.5479V36.9834H34.6689V33.4297H33.3799V32.7178H36.8545V33.4297ZM39.9248 35.1348H38.2373V36.2773H40.2178V36.9834H37.3584V32.7178H40.2119V33.4297H38.2373V34.4463H39.9248V35.1348ZM42.3125 35.4219H41.6123V36.9834H40.7334V32.7178H42.3184C42.8223 32.7178 43.2109 32.8301 43.4844 33.0547C43.7578 33.2793 43.8945 33.5967 43.8945 34.0068C43.8945 34.2979 43.8311 34.541 43.7041 34.7363C43.5791 34.9297 43.3887 35.084 43.1328 35.1992L44.0557 36.9424V36.9834H43.1123L42.3125 35.4219ZM41.6123 34.71H42.3213C42.542 34.71 42.7129 34.6543 42.834 34.543C42.9551 34.4297 43.0156 34.2744 43.0156 34.0771C43.0156 33.876 42.958 33.7178 42.8428 33.6025C42.7295 33.4873 42.5547 33.4297 42.3184 33.4297H41.6123V34.71ZM46.9385 35.4805V36.9834H46.0596V32.7178H47.7236C48.0439 32.7178 48.3252 32.7764 48.5674 32.8936C48.8115 33.0107 48.999 33.1777 49.1299 33.3945C49.2607 33.6094 49.3262 33.8545 49.3262 34.1299C49.3262 34.5479 49.1826 34.8779 48.8955 35.1201C48.6104 35.3604 48.2148 35.4805 47.709 35.4805H46.9385ZM46.9385 34.7686H47.7236C47.9561 34.7686 48.1328 34.7139 48.2539 34.6045C48.377 34.4951 48.4385 34.3389 48.4385 34.1357C48.4385 33.9268 48.377 33.7578 48.2539 33.6289C48.1309 33.5 47.9609 33.4336 47.7441 33.4297H46.9385V34.7686ZM52.499 35.1348H50.8115V36.2773H52.792V36.9834H49.9326V32.7178H52.7861V33.4297H50.8115V34.4463H52.499V35.1348ZM56.5771 33.4297H55.2705V36.9834H54.3916V33.4297H53.1025V32.7178H56.5771V33.4297ZM59.6475 35.1348H57.96V36.2773H59.9404V36.9834H57.0811V32.7178H59.9346V33.4297H57.96V34.4463H59.6475V35.1348ZM62.0352 35.4219H61.335V36.9834H60.4561V32.7178H62.041C62.5449 32.7178 62.9336 32.8301 63.207 33.0547C63.4805 33.2793 63.6172 33.5967 63.6172 34.0068C63.6172 34.2979 63.5537 34.541 63.4268 34.7363C63.3018 34.9297 63.1113 35.084 62.8555 35.1992L63.7783 36.9424V36.9834H62.835L62.0352 35.4219ZM61.335 34.71H62.0439C62.2646 34.71 62.4355 34.6543 62.5566 34.543C62.6777 34.4297 62.7383 34.2744 62.7383 34.0771C62.7383 33.876 62.6807 33.7178 62.5654 33.6025C62.4521 33.4873 62.2773 33.4297 62.041 33.4297H61.335V34.71ZM66.5 35.8643C66.5 35.6982 66.4414 35.5713 66.3242 35.4834C66.207 35.3936 65.9961 35.2998 65.6914 35.2021C65.3867 35.1025 65.1455 35.0049 64.9678 34.9092C64.4834 34.6475 64.2412 34.2949 64.2412 33.8516C64.2412 33.6211 64.3057 33.416 64.4346 33.2363C64.5654 33.0547 64.752 32.9131 64.9941 32.8115C65.2383 32.71 65.5117 32.6592 65.8145 32.6592C66.1191 32.6592 66.3906 32.7148 66.6289 32.8262C66.8672 32.9355 67.0518 33.0908 67.1826 33.292C67.3154 33.4932 67.3818 33.7217 67.3818 33.9775H66.5029C66.5029 33.7822 66.4414 33.6309 66.3184 33.5234C66.1953 33.4141 66.0225 33.3594 65.7998 33.3594C65.585 33.3594 65.418 33.4053 65.2988 33.4971C65.1797 33.5869 65.1201 33.7061 65.1201 33.8545C65.1201 33.9932 65.1895 34.1094 65.3281 34.2031C65.4688 34.2969 65.6748 34.3848 65.9463 34.4668C66.4463 34.6172 66.8105 34.8037 67.0391 35.0264C67.2676 35.249 67.3818 35.5264 67.3818 35.8584C67.3818 36.2275 67.2422 36.5176 66.9629 36.7285C66.6836 36.9375 66.3076 37.042 65.835 37.042C65.5068 37.042 65.208 36.9824 64.9385 36.8633C64.6689 36.7422 64.4629 36.5771 64.3203 36.3682C64.1797 36.1592 64.1094 35.917 64.1094 35.6416H64.9912C64.9912 36.1123 65.2725 36.3477 65.835 36.3477C66.0439 36.3477 66.207 36.3057 66.3242 36.2217C66.4414 36.1357 66.5 36.0166 66.5 35.8643Z" fill="#2196F3"/>
</svg>
