<svg width="45" height="51" viewBox="0 0 45 51" fill="none" xmlns="http://www.w3.org/2000/svg">
<path d="M6 0.725098L13.3076 7.74714H33.6924V27.3354L41 34.3574V0.725098H6Z" fill="#AFB1B8"/>
<path d="M0 7.45117V40.1228H34V27.1361L13.5231 7.45926L0 7.45117ZM27.5231 35.3438H5.38008V13.3704H6.9453V33.8559H27.5231V35.3438Z" fill="#AFB1B8"/>
<path d="M9.79102 46.1357L10.6089 44.4512H11.2925L10.1011 46.6973V48.0059H9.48096V46.6973L8.28711 44.4512H8.97314L9.79102 46.1357ZM13.3018 47.1782H11.9248L11.6367 48.0059H10.9946L12.3374 44.4512H12.8916L14.2368 48.0059H13.5923L13.3018 47.1782ZM12.0981 46.6802H13.1284L12.6133 45.2056L12.0981 46.6802ZM15.7358 47.0464C15.7358 46.882 15.7806 46.7314 15.8701 46.5947C15.9596 46.4564 16.1362 46.2928 16.3999 46.104C16.2616 45.9299 16.1647 45.7817 16.1094 45.6597C16.0557 45.5376 16.0288 45.4196 16.0288 45.3057C16.0288 45.0273 16.1134 44.8076 16.2827 44.6465C16.452 44.4837 16.6799 44.4023 16.9663 44.4023C17.2251 44.4023 17.4367 44.4788 17.6011 44.6318C17.7671 44.7832 17.8501 44.9712 17.8501 45.1958C17.8501 45.3439 17.8127 45.4806 17.7378 45.606C17.6629 45.7297 17.54 45.8534 17.3691 45.9771L17.1274 46.1528L17.8135 46.9634C17.9128 46.7681 17.9624 46.5508 17.9624 46.3115H18.4775C18.4775 46.7493 18.375 47.1082 18.1699 47.3882L18.6924 48.0059H18.0039L17.8037 47.769C17.5498 47.9595 17.2471 48.0547 16.8955 48.0547C16.5439 48.0547 16.2624 47.9619 16.0508 47.7764C15.8408 47.5892 15.7358 47.3459 15.7358 47.0464ZM16.9126 47.5811C17.1128 47.5811 17.3 47.5143 17.4741 47.3809L16.6978 46.4653L16.6221 46.519C16.4268 46.6672 16.3291 46.8364 16.3291 47.0269C16.3291 47.1912 16.382 47.3247 16.4878 47.4272C16.5936 47.5298 16.7352 47.5811 16.9126 47.5811ZM16.5854 45.291C16.5854 45.4277 16.6693 45.5994 16.8369 45.8062L17.1079 45.6206L17.1836 45.5596C17.2845 45.4701 17.335 45.3553 17.335 45.2153C17.335 45.1226 17.3 45.0436 17.23 44.9785C17.16 44.9118 17.0713 44.8784 16.9639 44.8784C16.8483 44.8784 16.7563 44.9175 16.688 44.9956C16.6196 45.0737 16.5854 45.1722 16.5854 45.291ZM23.043 46.8486C23.0072 47.2279 22.8672 47.5241 22.623 47.7373C22.3789 47.9489 22.0542 48.0547 21.6489 48.0547C21.3657 48.0547 21.1159 47.988 20.8994 47.8545C20.6846 47.7194 20.5186 47.5282 20.4014 47.2808C20.2842 47.0334 20.2231 46.7461 20.2183 46.4189V46.0869C20.2183 45.7516 20.2777 45.4562 20.3965 45.2007C20.5153 44.9451 20.6854 44.7482 20.9067 44.6099C21.1297 44.4715 21.3869 44.4023 21.6782 44.4023C22.0705 44.4023 22.3862 44.509 22.6255 44.7222C22.8647 44.9354 23.0039 45.2365 23.043 45.6255H22.4277C22.3984 45.37 22.3236 45.186 22.2031 45.0737C22.0843 44.9598 21.9093 44.9028 21.6782 44.9028C21.4097 44.9028 21.203 45.0013 21.0581 45.1982C20.9149 45.3936 20.8416 45.6808 20.8384 46.0601V46.375C20.8384 46.7591 20.9067 47.0521 21.0435 47.2539C21.1818 47.4557 21.3836 47.5566 21.6489 47.5566C21.8914 47.5566 22.0737 47.5021 22.1958 47.3931C22.3179 47.284 22.3952 47.1025 22.4277 46.8486H23.043ZM26.4341 46.3213C26.4341 46.6696 26.3739 46.9756 26.2534 47.2393C26.133 47.5013 25.9604 47.7031 25.7358 47.8447C25.5129 47.9847 25.2557 48.0547 24.9644 48.0547C24.6763 48.0547 24.4191 47.9847 24.1929 47.8447C23.9683 47.7031 23.7941 47.5021 23.6704 47.2417C23.5483 46.9813 23.4865 46.681 23.4849 46.3408V46.1406C23.4849 45.7939 23.5459 45.488 23.668 45.2227C23.7917 44.9574 23.965 44.7547 24.188 44.6147C24.4126 44.4731 24.6698 44.4023 24.9595 44.4023C25.2492 44.4023 25.5055 44.4723 25.7285 44.6123C25.9531 44.7507 26.1265 44.9508 26.2485 45.2129C26.3706 45.4733 26.4325 45.7769 26.4341 46.1235V46.3213ZM25.8164 46.1357C25.8164 45.7419 25.7415 45.4399 25.5918 45.23C25.4437 45.02 25.2329 44.915 24.9595 44.915C24.6925 44.915 24.4834 45.02 24.332 45.23C24.1823 45.4383 24.1058 45.7337 24.1025 46.1162V46.3213C24.1025 46.7119 24.1782 47.0138 24.3296 47.2271C24.4826 47.4403 24.6942 47.5469 24.9644 47.5469C25.2378 47.5469 25.4478 47.4427 25.5942 47.2344C25.7424 47.026 25.8164 46.7217 25.8164 46.3213V46.1357Z" fill="#AFB1B8"/>
</svg>
