<svg width="41" height="45" viewBox="0 0 41 45" fill="none" xmlns="http://www.w3.org/2000/svg">
<path d="M6.34566 43.2085C6.36067 43.2089 6.37546 43.2122 6.38915 43.2181C6.40284 43.2241 6.41516 43.2327 6.42539 43.2433L6.63116 43.4622C6.47144 43.6394 6.27403 43.7811 6.05243 43.8777C5.79293 43.9831 5.51326 44.0339 5.23192 44.027C4.96755 44.0322 4.70488 43.9848 4.46028 43.8876C4.23964 43.7984 4.04139 43.6644 3.87898 43.4946C3.71321 43.3185 3.58553 43.1121 3.50344 42.8876C3.41355 42.6373 3.36916 42.3738 3.37226 42.1089C3.36861 41.8422 3.4166 41.5773 3.51373 41.3277C3.60359 41.1018 3.73912 40.8954 3.91241 40.7207C4.08805 40.5494 4.29815 40.4148 4.52973 40.3252C4.78306 40.2302 5.05283 40.1829 5.32452 40.1858C5.57689 40.1799 5.82792 40.2231 6.06272 40.3127C6.26644 40.3982 6.45349 40.5169 6.61573 40.6635L6.4434 40.8973C6.43149 40.9138 6.41669 40.9281 6.39967 40.9396C6.37934 40.9531 6.35477 40.9593 6.33022 40.9571C6.30353 40.9553 6.27779 40.9467 6.25563 40.9322L6.16303 40.87L6.03443 40.7904C5.97891 40.7608 5.92133 40.735 5.86209 40.7133C5.78581 40.6868 5.70756 40.6661 5.62803 40.6511C5.52709 40.6331 5.42457 40.6247 5.32195 40.6262C5.12631 40.6238 4.93215 40.6593 4.75093 40.7307C4.58192 40.7967 4.42937 40.8968 4.30338 41.0242C4.17512 41.1597 4.07629 41.3188 4.01273 41.4919C3.94029 41.69 3.90458 41.8988 3.90727 42.1089C3.90418 42.3222 3.93987 42.5344 4.01273 42.7358C4.07549 42.9075 4.1725 43.0655 4.29823 43.201C4.41604 43.3273 4.56206 43.426 4.72521 43.4896C4.89311 43.5569 5.07333 43.5908 5.25507 43.5891C5.36005 43.5907 5.465 43.584 5.56887 43.5692C5.73848 43.5492 5.90118 43.4922 6.04472 43.4025C6.11671 43.3566 6.18467 43.305 6.24792 43.2483C6.27436 43.2239 6.30914 43.2097 6.34566 43.2085V43.2085Z" fill="#AFB1B8"/>
<path d="M12.2871 42.1086C12.2903 42.3725 12.2432 42.6348 12.1482 42.8822C12.0644 43.1067 11.9323 43.3114 11.7608 43.4829C11.5892 43.6544 11.382 43.7888 11.1528 43.8773C10.6492 44.063 10.0925 44.063 9.58896 43.8773C9.36125 43.7875 9.15539 43.6528 8.98452 43.4817C8.81305 43.3071 8.68004 43.1006 8.59356 42.8748C8.40827 42.3737 8.40827 41.826 8.59356 41.325C8.6813 41.099 8.81414 40.8919 8.98452 40.7155C9.15685 40.5499 9.3626 40.4203 9.58896 40.3349C10.0919 40.1458 10.6499 40.1458 11.1528 40.3349C11.3813 40.4247 11.588 40.5594 11.7598 40.7305C11.9292 40.9034 12.0612 41.1072 12.1482 41.33C12.2435 41.5791 12.2906 41.843 12.2871 42.1086ZM11.747 42.1086C11.751 41.8974 11.718 41.6871 11.6492 41.4867C11.5916 41.315 11.4979 41.1566 11.374 41.0215C11.2534 40.8937 11.1049 40.7934 10.9393 40.728C10.5734 40.592 10.1684 40.592 9.80245 40.728C9.63684 40.7934 9.48836 40.8937 9.36776 41.0215C9.24215 41.1558 9.14747 41.3144 9.08997 41.4867C8.9591 41.8916 8.9591 42.3256 9.08997 42.7305C9.14803 42.9026 9.24265 43.061 9.36776 43.1957C9.48851 43.3227 9.637 43.4221 9.80245 43.4867C10.169 43.6193 10.5728 43.6193 10.9393 43.4867C11.1048 43.4221 11.2533 43.3227 11.374 43.1957C11.4974 43.0602 11.591 42.902 11.6492 42.7305C11.7183 42.5301 11.7513 42.3198 11.747 42.1086V42.1086Z" fill="#AFB1B8"/>
<path d="M16.3408 42.7604L16.3948 42.8997C16.4154 42.85 16.4334 42.8052 16.4539 42.7604C16.4736 42.7136 16.4959 42.668 16.5208 42.6236L17.8352 40.3131C17.8609 40.2733 17.884 40.2484 17.9098 40.241C17.9447 40.2307 17.9813 40.2265 18.0178 40.2285H18.4062V43.9866H17.9458V41.2234C17.9458 41.1886 17.9458 41.1488 17.9458 41.1065C17.9433 41.0634 17.9433 41.0202 17.9458 40.9772L16.6237 43.32C16.6069 43.3551 16.58 43.3848 16.5463 43.4055C16.5125 43.4263 16.4733 43.4372 16.4334 43.4369H16.3588C16.3187 43.4375 16.2794 43.4267 16.2456 43.4059C16.2118 43.3852 16.185 43.3553 16.1684 43.32L14.8078 40.9622C14.8078 41.007 14.8078 41.0518 14.8078 41.0965C14.8078 41.1413 14.8078 41.1811 14.8078 41.2159V43.9791H14.3628V40.2285H14.7512C14.7877 40.2265 14.8243 40.2307 14.8592 40.241C14.8911 40.2563 14.9165 40.2817 14.9312 40.3131L16.2739 42.6261C16.3003 42.6689 16.3227 42.7138 16.3408 42.7604V42.7604Z" fill="#AFB1B8"/>
<path d="M21.2869 42.5741V43.9819H20.7725V40.2284H21.9196C22.1362 40.2244 22.3521 40.2521 22.5601 40.3105C22.7266 40.3561 22.881 40.4359 23.0128 40.5443C23.127 40.6459 23.2151 40.772 23.27 40.9125C23.3307 41.0656 23.3604 41.2286 23.3575 41.3925C23.3597 41.5571 23.3274 41.7205 23.2623 41.8726C23.2005 42.0166 23.1054 42.1451 22.9845 42.2482C22.8525 42.3612 22.6974 42.4459 22.5292 42.4969C22.329 42.5588 22.1195 42.5882 21.9093 42.584L21.2869 42.5741ZM21.2869 42.1711H21.9093C22.0446 42.1728 22.1792 42.1535 22.308 42.1139C22.4143 42.0793 22.5123 42.0243 22.5961 41.9522C22.6734 41.8834 22.7332 41.7983 22.771 41.7035C22.8131 41.6032 22.8341 41.4958 22.8327 41.3875C22.8387 41.2832 22.8211 41.1789 22.7811 41.0818C22.7412 40.9847 22.6798 40.8972 22.6013 40.8254C22.4047 40.677 22.1579 40.6051 21.9093 40.6239H21.2869V42.1711Z" fill="#AFB1B8"/>
<path d="M28.2007 43.9864H27.7943C27.7536 43.988 27.7135 43.9756 27.6812 43.9516C27.652 43.9282 27.6291 43.8984 27.6143 43.8646L27.2645 42.9567H25.5077L25.145 43.8646C25.1317 43.8978 25.1095 43.9269 25.0807 43.9491C25.048 43.9746 25.007 43.9878 24.965 43.9864H24.5586L26.1019 40.228H26.6369L28.2007 43.9864ZM25.6543 42.591H27.105L26.4928 41.0613C26.4461 40.9462 26.4074 40.8282 26.3771 40.7081L26.3179 40.9046C26.2999 40.9643 26.2794 41.019 26.2614 41.0638L25.6543 42.591Z" fill="#AFB1B8"/>
<path d="M30.4233 40.2455C30.4541 40.2618 30.4805 40.2848 30.5005 40.3127L32.7511 43.1458C32.7511 43.101 32.7511 43.0562 32.7511 43.0139C32.7511 42.9716 32.7511 42.9294 32.7511 42.8896V40.2281H33.2115V43.9865H32.9543C32.9178 43.9875 32.8816 43.9799 32.8489 43.9641C32.8171 43.9462 32.7892 43.9225 32.7666 43.8944L30.5185 41.0639C30.521 41.1069 30.521 41.1501 30.5185 41.1932C30.5185 41.2355 30.5185 41.2728 30.5185 41.3076V43.9865H30.0581V40.2281H30.3308C30.3626 40.2272 30.3942 40.2332 30.4233 40.2455V40.2455Z" fill="#AFB1B8"/>
<path d="M37.0028 42.4921V43.9846H36.4883V42.4921L35.0659 40.2284H35.5263C35.566 40.2261 35.6052 40.2376 35.6369 40.2607C35.6649 40.2848 35.6884 40.3135 35.7064 40.3453L36.5964 41.8055C36.6324 41.8677 36.6632 41.9249 36.689 41.9796C36.7147 42.0344 36.7353 42.0866 36.7533 42.1388L36.8201 41.9771C36.8451 41.918 36.8743 41.8607 36.9076 41.8055L37.7847 40.3353C37.8031 40.306 37.8256 40.2792 37.8516 40.2557C37.8821 40.23 37.9217 40.2166 37.9622 40.2184H38.4277L37.0028 42.4921Z" fill="#AFB1B8"/>
<path d="M16.0859 33.9206C16.3097 33.9479 16.5361 33.9703 16.765 33.9902C20.2356 32.4888 23.1716 30.0314 25.206 26.9252C27.2404 23.819 28.283 20.2018 28.2033 16.5258L24.3785 12.8269C25.1562 16.7407 24.7925 20.7866 23.3279 24.5119C21.8634 28.2372 19.3559 31.4949 16.0859 33.9206V33.9206Z" fill="#AFB1B8"/>
<path d="M14.7202 33.7489L14.8231 33.7688C18.3173 31.3517 20.9814 27.9764 22.4708 24.0795C23.9601 20.1825 24.2063 15.943 23.1774 11.9092L17.7296 6.64087C19.9331 10.9714 20.82 15.8178 20.2873 20.6167C19.7546 25.4155 17.824 29.9694 14.7202 33.7489V33.7489Z" fill="#AFB1B8"/>
<path d="M33.1959 20.8691C32.2704 24.9082 30.0225 28.5508 26.7861 31.2564C25.841 32.0509 24.8214 32.7587 23.7407 33.3706C26.3761 32.6215 28.7983 31.2972 30.8207 29.4997C32.8432 27.7023 34.4117 25.4797 35.4054 23.0033L33.1959 20.8691Z" fill="#AFB1B8"/>
<path d="M32.3292 20.2744L29.1835 17.2322C29.1233 20.7006 28.1037 24.0902 26.2306 27.0486C24.3575 30.007 21.6993 32.4263 18.5322 34.0549H18.5477C19.2534 34.0547 19.9586 34.014 20.6594 33.933C23.6192 32.7647 26.2339 30.906 28.2702 28.5227C30.3064 26.1394 31.7009 23.3057 32.3292 20.2744V20.2744Z" fill="#AFB1B8"/>
<path d="M15.1757 4.41959L11.4229 0.7854C8.06808 2.03912 5.18278 4.2431 3.14464 7.1089C1.1065 9.9747 0.0104686 13.3688 0 16.847H0C0.0125737 20.6902 1.3502 24.4197 3.80116 27.445C6.25213 30.4704 9.67642 32.6188 13.5321 33.5503C16.974 29.4949 18.9892 24.4838 19.2847 19.2451C19.5803 14.0064 18.1409 8.81305 15.1757 4.41959V4.41959Z" fill="#AFB1B8"/>
<path d="M41.0002 19.7148C40.9867 15.1551 39.1076 10.7858 35.7735 7.56161C32.4394 4.33738 27.9213 2.52021 23.2062 2.50709V2.50709C21.0274 2.50491 18.8671 2.89372 16.835 3.65377L39.8119 25.8735C40.5987 23.9094 41.0016 21.8211 41.0002 19.7148V19.7148Z" fill="#AFB1B8"/>
</svg>
